<svg width="200" height="66" viewBox="0 0 200 66" fill="none" xmlns="http://www.w3.org/2000/svg">
<g clip-path="url(#clip0_203_817)">
<path d="M27.8255 8.43326C27.7282 8.87915 27.4809 9.27812 27.125 9.56348C26.769 9.84883 26.3259 10.0033 25.8697 10.001C25.7156 9.99884 25.5622 9.97965 25.4122 9.94373C25.2979 9.91768 25.1867 9.87931 25.0806 9.82929C25.0103 9.80654 24.9445 9.77169 24.8862 9.72631C24.7326 9.65217 24.5932 9.55148 24.4745 9.42887C24.4631 9.42887 24.4631 9.42887 24.4516 9.40592H24.4401L24.3715 9.33727C24.3524 9.31721 24.337 9.29398 24.3258 9.26862C24.2885 9.23641 24.2575 9.19761 24.2343 9.15417C24.2041 9.12271 24.1773 9.0882 24.1542 9.0512C24.1345 9.02316 24.119 8.99229 24.1085 8.95965C24.1023 8.95348 24.0983 8.94543 24.0971 8.93675C24.039 8.84937 23.9964 8.75259 23.9713 8.65068C23.9599 8.6393 23.9599 8.6393 23.9599 8.62783C23.9326 8.5664 23.9171 8.50041 23.9141 8.43326C23.8918 8.37878 23.8802 8.32054 23.8798 8.26168C23.8361 8.01865 23.8439 7.76912 23.9027 7.52929C24.003 7.08291 24.2527 6.68418 24.6103 6.39911C24.968 6.11404 25.4123 5.95972 25.8695 5.96169C26.0237 5.96449 26.1772 5.98366 26.3273 6.01886C26.5841 6.0789 26.8267 6.18899 27.041 6.34284C27.2553 6.49669 27.4372 6.69128 27.5764 6.91549C27.7155 7.1397 27.8091 7.38915 27.8519 7.64957C27.8946 7.91 27.8856 8.17629 27.8255 8.43326Z" fill="url(#paint0_linear_203_817)"/>
<path d="M25.4858 9.62758C25.8115 9.70319 26.1524 9.68044 26.4652 9.56223C26.7781 9.44401 27.0488 9.23564 27.2433 8.96344C27.4378 8.69125 27.5472 8.36747 27.5578 8.03305C27.5684 7.69863 27.4796 7.36858 27.3027 7.08465C27.1258 6.80071 26.8687 6.57565 26.5639 6.4379C26.2591 6.30016 25.9204 6.25594 25.5905 6.31081C25.2606 6.36569 24.9544 6.51721 24.7106 6.74621C24.4668 6.97521 24.2963 7.27141 24.2207 7.59735C24.1195 8.03441 24.1958 8.49383 24.433 8.87456C24.6703 9.25529 25.0489 9.52615 25.4858 9.62758Z" fill="url(#paint1_linear_203_817)"/>
<path d="M16.4231 40.9421L11.6996 45.668L21.1465 55.1198L21.1351 55.1312L25.8813 59.8799L25.9842 59.9829L51.7396 34.2025V38.7453L25.8926 64.617L6.95369 45.6681L9.2982 43.3108L14.0444 38.5736L16.4232 36.1934L25.8701 45.6453L43.8714 27.6345L43.8943 27.623L48.3545 23.1488V4.32565C48.355 4.20227 48.331 4.08004 48.284 3.96597C48.237 3.85191 48.168 3.74827 48.0808 3.66104C47.9936 3.5738 47.89 3.50469 47.776 3.45769C47.662 3.41068 47.5398 3.38671 47.4165 3.38716H4.31165C4.06328 3.38827 3.8254 3.48747 3.64977 3.66319C3.47414 3.8389 3.37498 4.0769 3.37385 4.32539V34.3468L4.08577e-06 37.7225V4.32539C-0.000775916 3.75812 0.110132 3.19625 0.326395 2.67186C0.542659 2.14748 0.860041 1.67085 1.26042 1.2692C1.6608 0.867541 2.13633 0.548726 2.65986 0.330956C3.18339 0.113187 3.74467 0.000727889 4.31165 1.35632e-06H47.4165C47.9843 -0.00044873 48.5467 0.111124 49.0714 0.328337C49.5961 0.545551 50.0728 0.864141 50.4744 1.26588C50.8759 1.66762 51.1943 2.14463 51.4114 2.66961C51.6285 3.1946 51.74 3.75725 51.7395 4.32539V24.5103L48.3541 27.8975L46.2613 29.9912L46.2385 30.0141L43.8941 32.3717L43.8712 32.3832L25.8699 50.394L16.4231 40.9421Z" fill="url(#paint2_linear_203_817)"/>
<path d="M73.2752 60.1434C73.369 60.1434 73.4164 60.1859 73.4164 60.2702V61.9777C73.4192 61.9969 73.4174 62.0165 73.4113 62.0349C73.4051 62.0533 73.3948 62.07 73.3811 62.0837C73.3674 62.0974 73.3507 62.1077 73.3323 62.1139C73.3139 62.12 73.2944 62.1218 73.2752 62.1191C71.8281 62.1442 70.4072 61.7309 69.1992 60.9335C68.9172 61.0938 68.715 61.2069 68.5927 61.2726C68.4704 61.3383 68.3012 61.437 68.0851 61.5687C67.9253 61.6616 67.7721 61.7654 67.6267 61.8794C67.5372 61.9548 67.4362 62.0489 67.3234 62.1615C67.2241 62.255 67.1448 62.3677 67.0905 62.4929C67.0486 62.5985 67.027 62.7111 67.0269 62.8247C67.0311 63.0294 67.0956 63.2283 67.2124 63.3965C67.3291 63.5647 67.4928 63.6946 67.683 63.7701C68.2478 64.0217 68.8636 64.1377 69.4812 64.1087C70.4913 64.0963 71.4941 63.9345 72.4571 63.6288L72.9651 65.2239C71.796 65.7069 70.5479 65.9699 69.2834 66C68.2518 66.0561 67.2291 65.7817 66.3639 65.2166C66.0202 64.9756 65.7422 64.6525 65.5551 64.2766C65.3679 63.9008 65.2777 63.4841 65.2925 63.0644C65.2854 62.5183 65.493 61.9912 65.8704 61.5967C66.3634 61.1034 66.9297 60.6893 67.5491 60.3691C66.6499 59.3211 65.8782 58.1701 65.25 56.9403L65.8989 55.3875C66.9778 54.8083 68.1736 54.4804 69.3969 54.4282C70.2563 54.3932 71.1012 54.6576 71.7875 55.1763C72.0856 55.4013 72.326 55.6939 72.489 56.0299C72.6521 56.366 72.733 56.736 72.7252 57.1095C72.7252 58.0783 72.147 58.991 70.9907 59.8474C71.7361 60.0451 72.5041 60.1446 73.2752 60.1434ZM69.1428 56.2625C68.4216 56.2796 67.7115 56.4429 67.0552 56.7425C67.5561 57.7832 68.202 58.7477 68.9734 59.607C69.5008 59.3381 69.9954 59.009 70.4473 58.6265C70.587 58.5199 70.7026 58.385 70.7866 58.2305C70.8705 58.076 70.9208 57.9056 70.9342 57.7303C70.9395 57.5283 70.8983 57.3279 70.8139 57.1444C70.7294 56.961 70.604 56.7993 70.4473 56.672C70.0755 56.3836 69.6126 56.2382 69.1428 56.2625Z" fill="#1458A1"/>
<path d="M86.491 60.1434C86.5848 60.1434 86.6318 60.1859 86.6318 60.2702V61.9777C86.6346 61.9969 86.6329 62.0164 86.6268 62.0348C86.6207 62.0532 86.6105 62.0699 86.5968 62.0837C86.5831 62.0974 86.5664 62.1077 86.5481 62.1139C86.5297 62.12 86.5102 62.1218 86.491 62.1191C86.0732 62.1235 85.659 62.0405 85.2752 61.8752C84.8914 61.71 84.5464 61.4663 84.2623 61.1597C83.6983 61.7995 82.8191 62.1193 81.6248 62.1191H73.2752C73.256 62.1218 73.2364 62.12 73.218 62.1139C73.1997 62.1077 73.1829 62.0974 73.1692 62.0837C73.1555 62.07 73.1452 62.0533 73.1391 62.0349C73.1329 62.0165 73.1311 61.9969 73.1339 61.9777V60.2702C73.1368 60.235 73.153 60.2023 73.1793 60.1787C73.2056 60.1551 73.2399 60.1425 73.2752 60.1434H74.4741V52.0575L76.3359 51.8173V56.4178C77.3751 55.9265 78.4416 55.4954 79.5302 55.1266C80.2435 54.8954 80.9878 54.774 81.7376 54.7668C82.1633 54.7468 82.5884 54.8168 82.9853 54.972C83.3822 55.1272 83.7421 55.3643 84.0414 55.6678C84.3407 55.9712 84.5728 56.3344 84.7227 56.7335C84.8725 57.1326 84.9368 57.5589 84.9112 57.9845L84.8972 59.2405C84.8972 59.3249 84.8877 59.4612 84.8687 59.6495C85.3466 59.9756 85.9126 60.1479 86.491 60.1434ZM83.0352 58.803V58.1817C83.0428 57.9761 83.0035 57.7715 82.9204 57.5834C82.8373 57.3952 82.7125 57.2284 82.5555 57.0956C82.2056 56.812 81.764 56.6663 81.3141 56.686C80.7267 56.6855 80.1414 56.7591 79.5724 56.905C79.0033 57.0509 77.9245 57.4012 76.3357 57.956V60.1434H81.6386C82.0149 60.1669 82.3852 60.0401 82.6683 59.7908C82.7947 59.6607 82.8926 59.5057 82.9558 59.3356C83.019 59.1656 83.0459 58.9842 83.0352 58.803Z" fill="#1458A1"/>
<path d="M94.3604 60.1434C94.4542 60.1434 94.5017 60.1859 94.5017 60.2702V61.9777C94.5044 61.9969 94.5026 62.0165 94.4965 62.0349C94.4903 62.0533 94.48 62.07 94.4663 62.0837C94.4526 62.0974 94.4359 62.1077 94.4175 62.1139C94.3991 62.12 94.3796 62.1218 94.3604 62.1191C93.0753 62.1041 91.8004 61.8897 90.5809 61.4838C89.2657 61.936 87.8807 62.1511 86.4904 62.1191C86.3966 62.1096 86.3491 62.0627 86.3491 61.9777V60.2702C86.3491 60.1859 86.3966 60.1434 86.4904 60.1434C87.1013 60.1434 87.6326 60.1246 88.0842 60.087C87.5568 59.5309 87.2638 58.793 87.2661 58.0264C87.2562 57.6222 87.3315 57.2205 87.4871 56.8474C87.6427 56.4743 87.875 56.1381 88.1691 55.8608C88.4755 55.5708 88.8365 55.3447 89.2311 55.1956C89.6257 55.0465 90.046 54.9775 90.4676 54.9925C90.8909 54.978 91.3128 55.0492 91.7078 55.202C92.1029 55.3548 92.4631 55.5859 92.7666 55.8814C93.057 56.1572 93.2872 56.4902 93.4426 56.8593C93.598 57.2285 93.6753 57.6259 93.6696 58.0264C93.6599 58.7848 93.3625 59.5112 92.8376 60.0585C93.343 60.1173 93.8515 60.1457 94.3604 60.1434ZM90.3269 52.904L89.2128 54.0047L87.8445 52.6643L89.1842 51.3234L90.3268 52.4241L91.4548 51.3234L92.823 52.6643L91.4694 54.0047L90.3269 52.904ZM90.3832 56.7989C90.1925 56.7913 90.0024 56.8239 89.825 56.8944C89.6476 56.965 89.487 57.0719 89.3535 57.2084C89.2216 57.3475 89.1188 57.5115 89.051 57.6908C88.9832 57.8701 88.9518 58.0611 88.9587 58.2527C88.9627 58.631 89.1002 58.9957 89.3468 59.2824C89.6217 59.6139 89.9865 59.859 90.3972 59.9881C90.8127 59.8346 91.1835 59.58 91.4761 59.2472C91.7268 58.9758 91.8698 58.6221 91.8781 58.2527C91.8839 58.0569 91.8472 57.8621 91.7706 57.6819C91.6939 57.5016 91.5792 57.3401 91.4342 57.2084C91.1505 56.9403 90.7735 56.7933 90.3832 56.7989Z" fill="#1458A1"/>
<path d="M94.361 62.1191C94.3418 62.1218 94.3222 62.12 94.3038 62.1139C94.2855 62.1078 94.2688 62.0974 94.2551 62.0837C94.2414 62.07 94.231 62.0533 94.2249 62.0349C94.2188 62.0165 94.217 61.9969 94.2197 61.9777V60.2703C94.2197 60.1859 94.2716 60.1434 94.375 60.1434C94.5651 60.1597 94.7566 60.1341 94.9358 60.0682C95.115 60.0024 95.2775 59.898 95.4119 59.7624C95.6612 59.4145 95.7786 58.9893 95.7431 58.5628L95.7571 52.0575L97.6189 51.8173V59.1841C97.6189 61.1408 96.5329 62.1191 94.361 62.1191Z" fill="#1458A1"/>
<path d="M99.89 62.1191V52.0575L101.766 51.8173V62.1191H99.89Z" fill="#1458A1"/>
<path d="M106.857 55.0914C107.282 55.0773 107.706 55.1522 108.1 55.3113C108.495 55.4704 108.852 55.7103 109.149 56.0156C109.455 56.3483 109.692 56.7387 109.845 57.1639C109.999 57.5891 110.067 58.0407 110.045 58.4924V61.7945C110.045 64.0333 108.169 65.1528 104.417 65.153L104.22 63.6148C105.236 63.6695 106.254 63.5259 107.217 63.192C107.504 63.0864 107.752 62.8937 107.925 62.6408C108.098 62.3878 108.188 62.0872 108.183 61.7807C107.732 61.9933 107.242 62.1087 106.744 62.1193C106.305 62.1372 105.867 62.0623 105.459 61.8994C105.05 61.7365 104.681 61.4893 104.375 61.1739C103.781 60.4588 103.461 59.5554 103.473 58.6256C103.484 57.6959 103.827 56.8007 104.438 56.1007C104.748 55.7718 105.123 55.5118 105.54 55.3379C105.957 55.164 106.406 55.08 106.857 55.0914ZM105.15 58.5913C105.134 58.8208 105.169 59.051 105.252 59.2656C105.335 59.4801 105.464 59.6738 105.63 59.8328C105.994 60.1303 106.458 60.2769 106.927 60.2423C107.352 60.2356 107.774 60.1739 108.183 60.0585V58.6191C108.207 58.1825 108.063 57.7531 107.781 57.4196C107.643 57.2732 107.475 57.1583 107.289 57.0828C107.103 57.0073 106.902 56.9729 106.702 56.9821C106.498 56.9781 106.295 57.0154 106.106 57.0919C105.917 57.1683 105.746 57.2822 105.602 57.4268C105.45 57.5794 105.332 57.7615 105.254 57.9619C105.177 58.1623 105.141 58.3766 105.15 58.5913Z" fill="#1458A1"/>
<path d="M123.683 55.2468L125.559 55.0211V59.2406C125.559 61.1503 124.497 62.1098 122.372 62.1191H118.648C116.316 62.1191 115.15 61.0702 115.15 58.9724C115.162 58.1875 115.262 57.4065 115.446 56.6436L117.054 56.8414C116.956 57.3584 116.895 57.8818 116.871 58.4075C116.851 58.6543 116.891 58.9022 116.987 59.1305C117.082 59.3588 117.231 59.5609 117.421 59.7199C117.92 60.0388 118.509 60.1874 119.099 60.1435H122.329C123.241 60.1435 123.697 59.6307 123.698 58.6053L123.683 55.2468ZM120.312 54.654L119.198 55.7547L117.83 54.4143L119.17 53.0734L120.312 54.174L121.441 53.0734L122.809 54.4143L121.455 55.7547L120.312 54.654Z" fill="#1458A1"/>
<path d="M130.805 62.1191C128.643 62.1191 127.561 61.1408 127.561 59.1841L127.547 52.0575L129.423 51.8173V58.5631C129.388 58.9897 129.505 59.415 129.755 59.7627C129.889 59.8983 130.052 60.0027 130.231 60.0685C130.41 60.1344 130.601 60.16 130.791 60.1437C130.885 60.1437 130.932 60.1862 130.932 60.2705L130.946 61.978C130.949 61.9972 130.947 62.0167 130.941 62.0351C130.935 62.0534 130.925 62.0701 130.911 62.0838C130.897 62.0975 130.881 62.1078 130.862 62.114C130.844 62.1201 130.824 62.1219 130.805 62.1191Z" fill="#1458A1"/>
<path d="M140.946 55.2468L142.808 55.0071V59.226C142.858 59.6171 142.817 60.0143 142.688 60.387C142.56 60.7598 142.349 61.0981 142.069 61.3762C141.79 61.6542 141.451 61.8645 141.078 61.9909C140.704 62.1172 140.307 62.1563 139.917 62.1051C139.072 62.0848 138.253 61.8147 137.561 61.329C136.954 61.8693 136.158 62.1481 135.347 62.1051C134.579 62.0792 133.84 61.8015 133.245 61.3146C132.568 61.891 131.692 62.1797 130.805 62.1191C130.786 62.1218 130.767 62.1201 130.748 62.1139C130.73 62.1078 130.713 62.0974 130.7 62.0837C130.686 62.07 130.675 62.0533 130.669 62.0349C130.663 62.0165 130.661 61.9969 130.664 61.9777V60.2703C130.664 60.1859 130.712 60.1434 130.805 60.1434C131.727 60.1434 132.188 59.6307 132.188 58.6053L132.174 56.7146L134.035 56.4743V59.2405C134.039 59.4581 134.02 59.6755 133.979 59.8892C134.354 60.0474 134.757 60.1291 135.163 60.1295C136.075 60.1295 136.531 59.6168 136.532 58.5913L136.518 56.7L138.393 56.4603V59.226C138.393 59.4584 138.369 59.69 138.323 59.9177C138.73 60.0625 139.16 60.1341 139.592 60.1295C140.504 60.1295 140.96 59.6168 140.961 58.5913L140.946 55.2468ZM137.434 53.779L136.32 54.8797L134.952 53.5393L136.292 52.1984L137.434 53.2991L138.563 52.1984L139.931 53.5393L138.577 54.8797L137.434 53.779ZM138.351 51.6199L137.448 52.5228L136.546 51.6199L137.434 50.7164L138.351 51.6199Z" fill="#1458A1"/>
<path d="M148.055 62.1191C145.892 62.1191 144.811 61.1408 144.811 59.1841L144.797 52.0575L146.673 51.8173V58.5631C146.637 58.9897 146.755 59.415 147.004 59.7627C147.139 59.8983 147.301 60.0027 147.48 60.0685C147.659 60.1344 147.85 60.16 148.041 60.1437C148.134 60.1437 148.182 60.1862 148.182 60.2705L148.196 61.978C148.199 61.9972 148.197 62.0167 148.191 62.0351C148.185 62.0534 148.174 62.0701 148.16 62.0838C148.147 62.0975 148.13 62.1078 148.112 62.114C148.093 62.1201 148.074 62.1219 148.055 62.1191Z" fill="#1458A1"/>
<path d="M161.383 60.1434C161.477 60.1434 161.524 60.1859 161.524 60.2702V61.9777C161.527 61.9969 161.525 62.0164 161.519 62.0348C161.513 62.0532 161.503 62.07 161.489 62.0837C161.476 62.0974 161.459 62.1078 161.44 62.1139C161.422 62.12 161.403 62.1218 161.383 62.1191C160.633 62.1235 159.909 61.8466 159.352 61.343C159.061 61.6148 158.716 61.8229 158.339 61.9541C157.963 62.0853 157.563 62.1367 157.166 62.1051C156.322 62.0847 155.502 61.8147 154.811 61.329C154.203 61.8692 153.408 62.1481 152.596 62.1051C151.828 62.0792 151.09 61.8014 150.495 61.3145C149.817 61.8909 148.942 62.1797 148.055 62.1191C148.036 62.1218 148.016 62.12 147.998 62.1139C147.979 62.1077 147.963 62.0974 147.949 62.0837C147.935 62.07 147.925 62.0533 147.919 62.0349C147.913 62.0165 147.911 61.9969 147.914 61.9777V60.2702C147.914 60.1859 147.961 60.1434 148.055 60.1434C148.976 60.1434 149.437 59.6307 149.437 58.6052L149.423 56.7145L151.285 56.4743V59.2405C151.288 59.4581 151.269 59.6754 151.228 59.8892C151.603 60.0474 152.006 60.129 152.413 60.1295C153.325 60.1295 153.781 59.6167 153.781 58.5913L153.767 56.7L155.643 56.4603V59.226C155.642 59.4583 155.619 59.69 155.572 59.9177C155.98 60.0624 156.409 60.1341 156.842 60.1295C157.754 60.1295 158.21 59.6167 158.21 58.5913L158.196 55.2467L160.058 55.0071V59.226C160.062 59.4194 160.052 59.6128 160.029 59.8048C160.443 60.0353 160.91 60.1521 161.383 60.1434ZM154.641 53.779L153.527 54.8797L152.159 53.5393L153.499 52.1983L154.641 53.299L155.77 52.1983L157.138 53.5393L155.784 54.8797L154.641 53.779ZM155.558 51.6199L154.655 52.5228L153.753 51.6199L154.641 50.7164L155.558 51.6199Z" fill="#1458A1"/>
<path d="M161.383 62.1191C161.364 62.1218 161.344 62.12 161.326 62.1139C161.307 62.1078 161.291 62.0974 161.277 62.0837C161.263 62.07 161.253 62.0533 161.247 62.0349C161.241 62.0165 161.239 61.9969 161.241 61.9777V60.2703C161.241 60.1859 161.293 60.1434 161.397 60.1434C161.587 60.1597 161.778 60.1341 161.958 60.0682C162.137 60.0024 162.299 59.898 162.434 59.7624C162.683 59.4145 162.8 58.9893 162.765 58.5628L162.779 52.0575L164.641 51.8173V59.1841C164.641 61.1408 163.555 62.1191 161.383 62.1191Z" fill="#1458A1"/>
<path d="M166.912 62.1191V52.0575L168.788 51.8173V62.1191H166.912Z" fill="#1458A1"/>
<path d="M183.682 60.1434C183.775 60.1434 183.823 60.1859 183.823 60.2702V61.9777C183.826 61.9969 183.824 62.0165 183.818 62.0349C183.811 62.0533 183.801 62.07 183.787 62.0837C183.774 62.0974 183.757 62.1077 183.739 62.1139C183.72 62.12 183.701 62.1218 183.682 62.1191H180.353C179.567 62.1421 178.79 61.9441 178.111 61.5475C177.496 61.1737 177.024 60.605 176.77 59.9319C176.291 60.0732 176.052 60.4826 176.051 61.1599V65.6896L174.189 65.9292L174.175 61.075C174.175 59.2123 174.951 58.1727 176.503 57.9562C176.571 57.1321 176.955 56.3663 177.574 55.8186C178.209 55.2629 179.03 54.9679 179.873 54.9928C180.298 54.9841 180.721 55.0623 181.115 55.2224C181.509 55.3825 181.866 55.6213 182.165 55.9242C182.467 56.2137 182.706 56.5623 182.867 56.9483C183.029 57.3344 183.109 57.7496 183.103 58.168C183.091 58.8411 182.972 59.5079 182.75 60.1437L183.682 60.1434ZM180.311 60.1434H181.185C181.366 59.5916 181.466 59.0164 181.481 58.4359C181.486 58.0051 181.321 57.5897 181.023 57.2788C180.884 57.1218 180.714 56.9965 180.523 56.9112C180.332 56.826 180.125 56.7829 179.916 56.7849C179.708 56.777 179.501 56.8118 179.307 56.887C179.113 56.9623 178.936 57.0764 178.787 57.2224C178.641 57.3731 178.526 57.5523 178.451 57.7488C178.376 57.9454 178.341 58.1552 178.35 58.3655C178.34 58.6062 178.382 58.8461 178.474 59.069C178.565 59.2918 178.703 59.4923 178.879 59.6568C179.276 59.9972 179.789 60.1715 180.311 60.1434Z" fill="#1458A1"/>
<path d="M183.695 62.1191C183.676 62.1218 183.657 62.12 183.638 62.1139C183.62 62.1078 183.603 62.0974 183.589 62.0837C183.576 62.07 183.565 62.0533 183.559 62.0349C183.553 62.0165 183.551 61.9969 183.554 61.9777V60.2703C183.554 60.1859 183.606 60.1434 183.709 60.1434C183.899 60.1597 184.091 60.1341 184.27 60.0682C184.449 60.0024 184.612 59.898 184.746 59.7624C184.995 59.4145 185.113 58.9893 185.077 58.5628L185.091 52.0575L186.953 51.8173V59.1841C186.953 61.1408 185.867 62.1191 183.695 62.1191Z" fill="#1458A1"/>
<path d="M192.553 62.1191C190.39 62.1191 189.309 61.1408 189.309 59.1841L189.295 52.0575L191.171 51.8173V58.5631C191.135 58.9897 191.253 59.415 191.502 59.7627C191.637 59.8983 191.799 60.0027 191.978 60.0685C192.157 60.1344 192.348 60.16 192.539 60.1437C192.632 60.1437 192.68 60.1862 192.68 60.2705L192.694 61.978C192.697 61.9972 192.695 62.0167 192.689 62.0351C192.683 62.0534 192.672 62.0701 192.659 62.0838C192.645 62.0975 192.628 62.1078 192.61 62.1139C192.591 62.1201 192.572 62.1218 192.553 62.1191Z" fill="#1458A1"/>
<path d="M195.359 60.087C196.916 60.0034 198.466 59.8243 200 59.5506L199.605 61.5263C197.277 61.9397 194.917 62.1381 192.553 62.1191C192.534 62.1218 192.514 62.12 192.496 62.1139C192.477 62.1078 192.461 62.0974 192.447 62.0837C192.433 62.07 192.423 62.0533 192.417 62.0349C192.411 62.0165 192.409 61.9969 192.411 61.9777V60.2703C192.411 60.1859 192.459 60.1434 192.553 60.1434C193.06 60.1434 193.432 60.1388 193.667 60.1295C193.314 59.4843 193.125 58.762 193.117 58.0264C193.107 57.6275 193.184 57.2311 193.344 56.8654C193.503 56.4997 193.741 56.1735 194.041 55.91C194.689 55.343 195.529 55.0452 196.389 55.0774C197.317 55.133 198.231 55.333 199.097 55.6703L198.575 57.2504C197.96 57.0651 197.326 56.9515 196.685 56.9117C196.208 56.8889 195.739 57.0422 195.367 57.3426C195.204 57.4795 195.074 57.6515 194.988 57.8457C194.901 58.0399 194.859 58.2513 194.866 58.4639C194.878 59.0401 195.048 59.6019 195.359 60.087Z" fill="#1458A1"/>
<path d="M142.006 28.0199C142.014 24.2904 140.619 20.6944 138.098 17.947C135.577 15.1997 132.116 13.5022 128.401 13.1921C124.686 12.8821 120.991 13.9822 118.05 16.2737C115.109 18.5652 113.138 21.8803 112.529 25.5596C111.919 29.2389 112.716 33.0129 114.761 36.1312C116.805 39.2495 119.948 41.4836 123.564 42.3891C127.18 43.2947 131.004 42.8055 134.276 41.0187C137.548 39.2319 140.028 36.2785 141.223 32.7458H133.195C130.234 39.0945 120.588 36.2415 120.206 29.7465H141.897C141.967 29.1735 142.003 28.597 142.006 28.0199ZM120.933 24.1119C121.185 23.2039 121.631 22.3616 122.241 21.6436C122.852 20.9255 123.611 20.3489 124.466 19.9538C125.321 19.5586 126.252 19.3544 127.194 19.3553C128.136 19.3561 129.066 19.5621 129.92 19.9588C131.547 20.7315 133.069 22.2985 133.467 24.112L120.933 24.1119Z" fill="#1458A1"/>
<path d="M171.299 22.6073H163.669C163.191 22.5502 162.851 21.7352 162.558 21.4256C161.053 19.834 158.722 19.933 156.754 20.3696C155.99 20.5393 154.055 21.4477 154.057 22.4269C154.06 23.9368 157.736 24.335 158.764 24.5156C162.786 25.2232 167.738 26.5807 170.228 30.106C173.113 34.1898 170.734 39.4004 166.532 41.3338C163.886 42.5512 160.844 42.8887 157.959 42.8261C153.578 42.7311 148.876 41.1665 146.648 37.1154C146.472 36.7952 145.223 33.2401 145.412 33.2401H152.77C152.77 33.2401 153.451 38.1469 161.76 36.2397C163.025 35.9493 164.062 34.9496 163.143 33.6871C162.217 32.4135 159.281 32.3495 157.811 32.0133C154.157 31.1779 148.623 30.2334 146.797 26.4024C144.457 21.4917 148.606 15.9289 153.15 14.3254C157.093 12.9341 161.975 13.0397 165.717 14.9983C168.657 16.5377 170.534 19.4343 171.299 22.6073Z" fill="#1458A1"/>
<path d="M92.3478 3.00177C98.4605 3.00177 100.871 3.38357 103.251 5.00125C104.523 5.86692 105.568 7.02774 106.294 8.38464C107.021 9.74155 107.409 11.2543 107.425 12.7937C107.419 14.5768 106.9 16.3205 105.931 17.8168C104.962 19.3132 103.583 20.4991 101.958 21.2332C106.661 22.5572 109.306 26.1144 109.306 30.5844C109.301 32.3556 108.884 34.1014 108.088 35.6836C107.293 37.2658 106.14 38.6411 104.721 39.7007C101.87 41.7002 99.9894 41.7883 89.9961 41.8177H76.8289V3.00177H92.3478ZM84.677 18.4396H89.7905C95.9044 18.4396 97.1091 18.4689 98.6366 16.9394C99.0245 16.5397 99.3264 16.0648 99.5237 15.5439C99.721 15.023 99.8095 14.4672 99.7838 13.9108C99.7838 11.4708 98.4898 9.94121 95.8149 9.61815C95.0518 9.52881 92.8467 9.49947 89.1727 9.49947H84.6769L84.677 18.4396ZM84.677 35.2895H91.9063C94.7278 35.2895 96.5208 35.2014 97.2852 35.0252C99.5478 34.6422 101.194 32.9376 101.194 30.2321C101.194 27.8789 100.048 26.2025 97.9319 25.4683C96.8436 25.1148 94.5216 24.9382 90.9658 24.9385H84.677V35.2895Z" fill="#1458A1"/>
<path d="M65.071 20.8544V41.5608H72.1561V13.7655L65.071 20.8544Z" fill="#1458A1"/>
<path d="M72.1561 13.6352V6.42352H65.071V6.54683L72.1561 13.6352Z" fill="#00A3A0"/>
<path d="M196.883 21.9424V15.0771H185.62V7.98849L173.993 19.8029V21.9424H196.883Z" fill="#00A3A0"/>
<path d="M196.52 34.2645C196.52 34.2645 187.073 39.7174 185.983 31.72V24.5811H178.535V32.8105C178.535 37.4422 182.302 41.6186 186.769 42.5109C190.377 43.2317 195.849 42.8856 198.518 40.0098C198.57 39.9537 198.915 39.6103 198.881 39.5357L196.52 34.2645Z" fill="#1458A1"/>
</g>
<defs>
<linearGradient id="paint0_linear_203_817" x1="23.8515" y1="7.98135" x2="27.8806" y2="7.98135" gradientUnits="userSpaceOnUse">
<stop stop-color="#00A3A0"/>
<stop offset="1" stop-color="#1458A1"/>
</linearGradient>
<linearGradient id="paint1_linear_203_817" x1="24.1766" y1="7.9796" x2="27.559" y2="7.9796" gradientUnits="userSpaceOnUse">
<stop stop-color="#00A3A0"/>
<stop offset="1" stop-color="#1458A1"/>
</linearGradient>
<linearGradient id="paint2_linear_203_817" x1="4.08577e-06" y1="32.3085" x2="51.7395" y2="32.3085" gradientUnits="userSpaceOnUse">
<stop stop-color="#00A3A0"/>
<stop offset="1" stop-color="#1458A1"/>
</linearGradient>
<clipPath id="clip0_203_817">
<rect width="200" height="66" fill="white"/>
</clipPath>
</defs>
</svg>
