<svg width="24" height="24" viewBox="0 0 24 24" fill="none" xmlns="http://www.w3.org/2000/svg">
<path fill-rule="evenodd" clip-rule="evenodd" d="M4.25305 1.84946C5.42957 1.25 6.96971 1.25 10.05 1.25H13.95C17.0303 1.25 18.5704 1.25 19.7469 1.84946C20.7818 2.37677 21.6232 3.21816 22.1505 4.25305C22.75 5.42957 22.75 6.96971 22.75 10.05V13.95C22.75 17.0303 22.75 18.5704 22.1505 19.7469C21.6232 20.7818 20.7818 21.6232 19.7469 22.1505C18.5704 22.75 17.0303 22.75 13.95 22.75H13.75V14.75H17C17.4142 14.75 17.75 14.4142 17.75 14C17.75 13.5858 17.4142 13.25 17 13.25H13.75V11.2C13.75 10.6276 13.7506 10.2434 13.7748 9.94748C13.7982 9.66035 13.8401 9.52307 13.8862 9.43251C14.0061 9.19731 14.1973 9.00608 14.4325 8.88624C14.5231 8.8401 14.6604 8.79822 14.9475 8.77476C15.2434 8.75058 15.6276 8.75 16.2 8.75H17C17.4142 8.75 17.75 8.41421 17.75 8C17.75 7.58579 17.4142 7.25 17 7.25H16.2L16.1696 7.25H16.1695C15.6354 7.24999 15.1896 7.24998 14.8253 7.27974C14.4454 7.31078 14.0888 7.37789 13.7515 7.54973C13.2341 7.81338 12.8134 8.23408 12.5497 8.75153C12.3779 9.08879 12.3108 9.44545 12.2797 9.82533C12.25 10.1896 12.25 10.6354 12.25 11.1696V11.2V13.25H10C9.58579 13.25 9.25 13.5858 9.25 14C9.25 14.4142 9.58579 14.75 10 14.75H12.25V22.75H10.05C6.96971 22.75 5.42957 22.75 4.25305 22.1505C3.21816 21.6232 2.37677 20.7818 1.84946 19.7469C1.25 18.5704 1.25 17.0303 1.25 13.95V10.05C1.25 6.96971 1.25 5.42957 1.84946 4.25305C2.37677 3.21816 3.21816 2.37677 4.25305 1.84946Z" fill="#1458A1"/>
</svg>
