<svg width="38" height="38" viewBox="0 0 38 38" fill="none" xmlns="http://www.w3.org/2000/svg">
<rect width="38" height="38" rx="8" fill="#00A3A0"/>
<path d="M26.3652 9H11.6348C10.7319 9 10 9.73193 10 10.6348C10 12.7466 11.0199 14.7285 12.7384 15.956L14.6667 17.3333L14.6667 17.3333C15.3088 17.792 15.6298 18.0213 15.8889 18.2919C16.4248 18.8514 16.7866 19.5545 16.9304 20.3157C17 20.6838 17 21.0784 17 21.8674V27C17 28.1046 17.8954 29 19 29C20.1046 29 21 28.1046 21 27V21.8674C21 21.0784 21 20.6838 21.0696 20.3157C21.2134 19.5545 21.5752 18.8514 22.1111 18.2919C22.3702 18.0213 22.6912 17.792 23.3333 17.3333L25.2616 15.956C26.9801 14.7285 28 12.7466 28 10.6348C28 9.73193 27.2681 9 26.3652 9Z" stroke="white" stroke-width="1.5" stroke-linecap="round" stroke-linejoin="round"/>
</svg>
