<svg width="24" height="24" viewBox="0 0 24 24" fill="none" xmlns="http://www.w3.org/2000/svg">
<path fill-rule="evenodd" clip-rule="evenodd" d="M10.05 1.25C6.96971 1.25 5.42957 1.25 4.25305 1.84946C3.21816 2.37677 2.37677 3.21816 1.84946 4.25305C1.25 5.42957 1.25 6.96971 1.25 10.05V13.95C1.25 17.0303 1.25 18.5704 1.84946 19.7469C2.37677 20.7818 3.21816 21.6232 4.25305 22.1505C5.42957 22.75 6.96971 22.75 10.05 22.75H13.95C17.0303 22.75 18.5704 22.75 19.7469 22.1505C20.7818 21.6232 21.6232 20.7818 22.1505 19.7469C22.75 18.5704 22.75 17.0303 22.75 13.95V10.05C22.75 6.96971 22.75 5.42957 22.1505 4.25305C21.6232 3.21816 20.7818 2.37677 19.7469 1.84946C18.5704 1.25 17.0303 1.25 13.95 1.25H10.05ZM7.25 12C7.25 9.37665 9.37665 7.25 12 7.25C14.6234 7.25 16.75 9.37665 16.75 12C16.75 14.6234 14.6234 16.75 12 16.75C9.37665 16.75 7.25 14.6234 7.25 12ZM18.5 7C19.3284 7 20 6.32843 20 5.5C20 4.67157 19.3284 4 18.5 4C17.6716 4 17 4.67157 17 5.5C17 6.32843 17.6716 7 18.5 7Z" fill="#1458A1"/>
</svg>
