<svg width="32" height="32" viewBox="0 0 32 32" fill="none" xmlns="http://www.w3.org/2000/svg">
<path d="M11.4925 8.72727C11.4925 9.26668 11.3314 9.79397 11.0297 10.2425C10.7279 10.691 10.299 11.0405 9.79719 11.2469C9.29538 11.4534 8.7432 11.5074 8.21048 11.4021C7.67776 11.2969 7.18843 11.0372 6.80436 10.6557C6.42029 10.2743 6.15873 9.78838 6.05277 9.25934C5.94681 8.7303 6.00119 8.18193 6.20905 7.68359C6.4169 7.18525 6.7689 6.7593 7.22052 6.45963C7.67213 6.15995 8.20309 6 8.74625 6C9.4746 6 10.1731 6.28734 10.6881 6.7988C11.2032 7.31026 11.4925 8.00395 11.4925 8.72727ZM10.87 13.2727V25.3218C10.8705 25.4107 10.8533 25.4988 10.8194 25.5811C10.7854 25.6633 10.7355 25.7381 10.6724 25.8011C10.6092 25.8642 10.5342 25.9142 10.4516 25.9483C10.3689 25.9824 10.2803 26 10.1908 26H7.29623C7.20672 26.0002 7.11805 25.9829 7.03531 25.949C6.95257 25.9151 6.87739 25.8653 6.8141 25.8024C6.75081 25.7396 6.70065 25.6649 6.66651 25.5828C6.63237 25.5006 6.61492 25.4125 6.61516 25.3236V13.2727C6.61516 13.0933 6.68692 12.9213 6.81464 12.7945C6.94237 12.6676 7.1156 12.5964 7.29623 12.5964H10.1908C10.3711 12.5968 10.5438 12.6683 10.6712 12.7951C10.7985 12.9219 10.87 13.0937 10.87 13.2727ZM26 19.5455V25.3782C26.0002 25.4599 25.9842 25.5409 25.9528 25.6164C25.9214 25.692 25.8753 25.7606 25.8171 25.8184C25.759 25.8762 25.6898 25.922 25.6138 25.9532C25.5377 25.9843 25.4561 26.0002 25.3739 26H22.2614C22.1791 26.0002 22.0976 25.9843 22.0215 25.9532C21.9455 25.922 21.8763 25.8762 21.8182 25.8184C21.76 25.7606 21.7138 25.692 21.6825 25.6164C21.6511 25.5409 21.6351 25.4599 21.6353 25.3782V19.7255C21.6353 18.8818 21.8843 16.0309 19.4145 16.0309C17.5013 16.0309 17.1113 17.9818 17.0344 18.8582V25.3782C17.0344 25.5415 16.9697 25.6983 16.8543 25.8147C16.7388 25.931 16.5819 25.9976 16.4174 26H13.4112C13.3291 26 13.2477 25.9839 13.1719 25.9526C13.096 25.9214 13.0271 25.8755 12.9691 25.8178C12.9111 25.76 12.8652 25.6914 12.8339 25.616C12.8026 25.5406 12.7867 25.4598 12.7869 25.3782V13.22C12.7867 13.1384 12.8026 13.0576 12.8339 12.9822C12.8652 12.9067 12.9111 12.8382 12.9691 12.7804C13.0271 12.7227 13.096 12.6768 13.1719 12.6455C13.2477 12.6143 13.3291 12.5982 13.4112 12.5982H16.4174C16.5835 12.5982 16.7428 12.6637 16.8602 12.7803C16.9776 12.8969 17.0436 13.0551 17.0436 13.22V14.2709C17.7539 13.2127 18.8067 12.3964 21.0531 12.3964C26.0293 12.3964 26 17.0109 26 19.5455Z" fill="#1458A1"/>
<rect x="1" y="1" width="30" height="30" rx="5.5" stroke="#1458A1"/>
</svg>
