<svg width="24" height="24" viewBox="0 0 24 24" fill="none" xmlns="http://www.w3.org/2000/svg">
<g clip-path="url(#clip0_231_8539)">
<path d="M19.3332 14.667C18.5771 14.6676 17.8325 14.8522 17.1637 15.2048C16.4949 15.5574 15.9219 16.0675 15.4942 16.691L8.98518 13.752C9.44749 12.6356 9.44929 11.3817 8.99018 10.264L15.4902 7.31C16.124 8.22676 17.0655 8.88597 18.1438 9.16805C19.222 9.45013 20.3657 9.33641 21.3673 8.8475C22.3689 8.3586 23.1621 7.5269 23.603 6.50327C24.0439 5.47964 24.1034 4.33188 23.7705 3.26818C23.4377 2.20448 22.7347 1.2953 21.7889 0.705559C20.8432 0.115817 19.7174 -0.115424 18.6157 0.0537794C17.5141 0.222983 16.5096 0.781424 15.7844 1.62781C15.0592 2.47419 14.6614 3.55245 14.6632 4.667C14.6674 4.9308 14.6942 5.19376 14.7432 5.453L7.83318 8.593C7.16952 7.97122 6.33868 7.55684 5.44275 7.40077C4.54682 7.24469 3.6248 7.35372 2.78999 7.71446C1.95517 8.0752 1.2439 8.67194 0.743573 9.43137C0.243244 10.1908 -0.0243578 11.0798 -0.0263559 11.9893C-0.0283541 12.8987 0.235338 13.7889 0.732325 14.5505C1.22931 15.3121 1.93795 15.912 2.77117 16.2764C3.6044 16.6408 4.52592 16.7539 5.42253 16.6017C6.31915 16.4496 7.15179 16.0389 7.81818 15.42L14.7462 18.548C14.6981 18.807 14.6716 19.0696 14.6672 19.333C14.667 20.2561 14.9406 21.1586 15.4533 21.9262C15.966 22.6939 16.6949 23.2922 17.5477 23.6456C18.4006 23.9989 19.339 24.0914 20.2444 23.9114C21.1498 23.7313 21.9815 23.2868 22.6342 22.6341C23.287 21.9813 23.7315 21.1497 23.9116 20.2442C24.0916 19.3388 23.9991 18.4004 23.6457 17.5476C23.2924 16.6947 22.694 15.9659 21.9264 15.4531C21.1588 14.9404 20.2563 14.6668 19.3332 14.667ZM19.3332 2C19.8607 1.99981 20.3764 2.15605 20.8152 2.44899C21.2539 2.74192 21.5959 3.15838 21.7979 3.64569C21.9999 4.13301 22.0528 4.66928 21.9501 5.1867C21.8473 5.70411 21.5933 6.17942 21.2204 6.5525C20.8474 6.92559 20.3722 7.1797 19.8549 7.28269C19.3375 7.38567 18.8012 7.33292 18.3138 7.13109C17.8264 6.92926 17.4098 6.58742 17.1167 6.14881C16.8236 5.71021 16.6672 5.19453 16.6672 4.667C16.6677 3.96001 16.9487 3.2821 17.4486 2.78209C17.9484 2.28207 18.6262 2.0008 19.3332 2ZM4.66718 14.667C4.13965 14.6672 3.62392 14.511 3.1852 14.218C2.74648 13.9251 2.40449 13.5086 2.20248 13.0213C2.00046 12.534 1.94751 11.9977 2.0503 11.4803C2.15309 10.9629 2.40702 10.4876 2.77997 10.1145C3.15292 9.74142 3.62813 9.48731 4.1455 9.38432C4.66288 9.28134 5.19917 9.33409 5.68656 9.53592C6.17395 9.73775 6.59054 10.0796 6.88364 10.5182C7.17673 10.9568 7.33318 11.4725 7.33318 12C7.33238 12.7069 7.05128 13.3847 6.55151 13.8846C6.05174 14.3846 5.37409 14.6659 4.66718 14.667ZM19.3332 22C18.8057 22 18.2901 21.8436 17.8515 21.5505C17.4129 21.2575 17.071 20.841 16.8692 20.3536C16.6673 19.8663 16.6145 19.33 16.7174 18.8127C16.8203 18.2954 17.0743 17.8201 17.4473 17.4472C17.8203 17.0742 18.2955 16.8202 18.8129 16.7173C19.3302 16.6143 19.8665 16.6672 20.3538 16.869C20.8411 17.0709 21.2577 17.4127 21.5507 17.8513C21.8438 18.2899 22.0002 18.8055 22.0002 19.333C21.9996 20.0402 21.7185 20.7182 21.2184 21.2183C20.7184 21.7183 20.0403 21.9995 19.3332 22Z" fill="#1458A1"/>
</g>
<defs>
<clipPath id="clip0_231_8539">
<rect width="24" height="24" fill="white"/>
</clipPath>
</defs>
</svg>
