<svg width="32" height="32" viewBox="0 0 32 32" fill="none" xmlns="http://www.w3.org/2000/svg">
<path d="M21.3408 10.7361L21.3022 10.6975C20.0399 9.4346 18.3684 8.66363 16.5885 8.52323C14.8085 8.38282 13.0369 8.8822 11.5922 9.93153C10.1475 10.9809 9.12465 12.5113 8.70752 14.2475C8.29039 15.9838 8.5064 17.8119 9.3167 19.4031L9.64671 20.0526L9.03234 23.037L9.02356 23.0757L11.9883 22.3735L12.6641 22.7158C14.0703 23.4144 15.66 23.6546 17.2098 23.4027C18.7596 23.1508 20.1914 22.4194 21.304 21.3114C22.7034 19.9117 23.4927 18.0154 23.4999 16.0361C23.5072 14.0567 22.7317 12.1548 21.3426 10.7449L21.3408 10.7361ZM21.0389 19.1134C20.6755 19.6857 20.1015 20.3844 19.3801 20.5582C18.1162 20.8655 16.1766 20.5688 13.763 18.3199L13.7331 18.2919C11.6109 16.3257 11.0598 14.6878 11.1932 13.3887C11.2669 12.6496 11.8813 11.9843 12.3991 11.5471C12.4811 11.4776 12.5782 11.4282 12.6826 11.4027C12.7871 11.3773 12.896 11.3766 13.0008 11.4006C13.1056 11.4246 13.2034 11.4727 13.2863 11.5412C13.3692 11.6096 13.4351 11.6964 13.4786 11.7947L14.2598 13.5607C14.3109 13.6745 14.3299 13.8 14.3148 13.9238C14.2996 14.0476 14.2508 14.1649 14.1737 14.2629L13.7788 14.7755C13.6961 14.8807 13.6462 15.0078 13.6352 15.1411C13.6243 15.2744 13.6529 15.408 13.7174 15.5252C13.9385 15.9114 14.4686 16.4819 15.0567 17.0121C15.7167 17.6072 16.4487 18.1532 16.9121 18.341C17.0364 18.3907 17.1726 18.4025 17.3036 18.3746C17.4345 18.3468 17.5542 18.2807 17.6476 18.1848L18.1057 17.7231C18.1941 17.6359 18.3041 17.5737 18.4243 17.5429C18.5446 17.512 18.6709 17.5136 18.7903 17.5475L20.6457 18.0742C20.7483 18.1055 20.8424 18.1599 20.9207 18.2333C20.999 18.3066 21.0594 18.3969 21.0974 18.4973C21.1354 18.5976 21.1498 18.7053 21.1397 18.8122C21.1295 18.919 21.0951 19.022 21.0389 19.1134Z" fill="#1458A1"/>
<rect x="1" y="1" width="30" height="30" rx="5.5" stroke="#1458A1"/>
</svg>
