<svg width="32" height="32" viewBox="0 0 32 32" fill="none" xmlns="http://www.w3.org/2000/svg">
<path d="M23.1211 8.98145L23.0696 8.92996C21.3865 7.24614 19.1579 6.21818 16.7846 6.03097C14.4114 5.84377 12.0492 6.5096 10.1229 7.90871C8.19671 9.30782 6.83286 11.3484 6.27669 13.6634C5.72052 15.9784 6.00854 18.4159 7.08893 20.5375L7.52894 21.4035L6.70978 25.3827L6.69808 25.4342L10.6511 24.4979L11.5522 24.9544C13.4271 25.8859 15.5467 26.2062 17.6131 25.8703C19.6794 25.5344 21.5886 24.5592 23.0719 23.0818C24.9378 21.2155 25.9903 18.6872 25.9999 16.0481C26.0096 13.409 24.9756 10.873 23.1234 8.99315L23.1211 8.98145ZM22.7185 20.1513C22.2341 20.9143 21.4687 21.8459 20.5068 22.0777C18.8217 22.4873 16.2355 22.0917 13.0173 19.0933L12.9775 19.0558C10.1479 16.4342 9.41301 14.2504 9.59089 12.5182C9.68919 11.5328 10.5083 10.6457 11.1988 10.0629C11.3081 9.97016 11.4376 9.90424 11.5768 9.87032C11.7161 9.8364 11.8614 9.83542 12.0011 9.86746C12.1408 9.8995 12.2711 9.96367 12.3817 10.0549C12.4923 10.1461 12.5801 10.2618 12.6382 10.3929L13.6797 12.7476C13.7479 12.8993 13.7732 13.0667 13.753 13.2318C13.7328 13.3968 13.6678 13.5532 13.565 13.6839L13.0384 14.3674C12.9281 14.5075 12.8616 14.6771 12.847 14.8548C12.8324 15.0325 12.8705 15.2106 12.9565 15.3669C13.2514 15.8818 13.9582 16.6426 14.7422 17.3494C15.6223 18.1429 16.5982 18.8709 17.2161 19.1214C17.3818 19.1877 17.5635 19.2033 17.7381 19.1662C17.9127 19.1291 18.0723 19.041 18.1968 18.913L18.8076 18.2974C18.9255 18.1812 19.0721 18.0983 19.2324 18.0572C19.3928 18.016 19.5611 18.0182 19.7204 18.0634L22.1943 18.7656C22.3311 18.8073 22.4565 18.8799 22.5609 18.9777C22.6653 19.0755 22.7459 19.1959 22.7965 19.3297C22.8471 19.4635 22.8664 19.6071 22.8529 19.7495C22.8394 19.892 22.7934 20.0294 22.7185 20.1513Z" fill="#1458A1"/>
<rect x="1" y="1" width="30" height="30" rx="5.5" stroke="#1458A1"/>
</svg>
