<svg width="24" height="24" viewBox="0 0 24 24" fill="none" xmlns="http://www.w3.org/2000/svg">
<path d="M6.861 6.15906L15.737 17.7641H17.097L8.322 6.15906H6.861Z" fill="#1458A1"/>
<path d="M6 1C3.23858 1 1 3.23858 1 6V17.5C1 20.2614 3.23858 22.5 6 22.5H17.5C20.2614 22.5 22.5 20.2614 22.5 17.5V6C22.5 3.23858 20.2614 1 17.5 1H6ZM14.4939 18.2287L11.0271 13.7002L7.06569 18.2287H4.86373L9.99954 12.3574L4.58333 5.27133H9.11804L12.2481 9.41098L15.8699 5.27133H18.0692L13.2666 10.7592L18.9167 18.2278L14.4939 18.2287Z" fill="#1458A1"/>
</svg>
