<svg width="32" height="32" viewBox="0 0 32 32" fill="none" xmlns="http://www.w3.org/2000/svg">
<path d="M12.6194 10.5455C12.6194 10.95 12.4986 11.3455 12.2723 11.6818C12.0459 12.0182 11.7243 12.2804 11.3479 12.4352C10.9715 12.59 10.5574 12.6305 10.1579 12.5516C9.75832 12.4727 9.39132 12.2779 9.10327 11.9918C8.81522 11.7057 8.61905 11.3413 8.53958 10.9445C8.4601 10.5477 8.50089 10.1365 8.65678 9.76269C8.81268 9.38894 9.07667 9.06948 9.41539 8.84472C9.7541 8.61996 10.1523 8.5 10.5597 8.5C11.1059 8.5 11.6298 8.7155 12.0161 9.0991C12.4024 9.4827 12.6194 10.003 12.6194 10.5455ZM12.1525 13.9545V22.9914C12.1529 23.058 12.14 23.1241 12.1145 23.1858C12.0891 23.2475 12.0516 23.3036 12.0043 23.3509C11.9569 23.3981 11.9007 23.4356 11.8387 23.4612C11.7767 23.4868 11.7102 23.5 11.6431 23.5H9.47217C9.40504 23.5002 9.33854 23.4872 9.27648 23.4617C9.21443 23.4363 9.15804 23.399 9.11058 23.3518C9.06311 23.3047 9.02549 23.2487 8.99988 23.1871C8.97428 23.1254 8.96119 23.0594 8.96137 22.9927V13.9545C8.96137 13.82 9.01519 13.691 9.11098 13.5958C9.20677 13.5007 9.3367 13.4473 9.47217 13.4473H11.6431C11.7783 13.4476 11.9079 13.5012 12.0034 13.5963C12.0989 13.6914 12.1525 13.8202 12.1525 13.9545ZM23.5 18.6591V23.0336C23.5002 23.0949 23.4882 23.1557 23.4646 23.2123C23.4411 23.269 23.4065 23.3205 23.3629 23.3638C23.3192 23.4071 23.2674 23.4415 23.2103 23.4649C23.1533 23.4882 23.0921 23.5002 23.0304 23.5H20.6961C20.6344 23.5002 20.5732 23.4882 20.5162 23.4649C20.4591 23.4415 20.4073 23.4071 20.3636 23.3638C20.32 23.3205 20.2854 23.269 20.2618 23.2123C20.2383 23.1557 20.2263 23.0949 20.2265 23.0336V18.7941C20.2265 18.1614 20.4132 16.0232 18.5609 16.0232C17.126 16.0232 16.8335 17.4864 16.7758 18.1436V23.0336C16.7758 23.1561 16.7273 23.2737 16.6407 23.361C16.5541 23.4483 16.4364 23.4982 16.3131 23.5H14.0584C13.9968 23.5 13.9358 23.4879 13.8789 23.4645C13.822 23.441 13.7703 23.4066 13.7268 23.3633C13.6833 23.32 13.6489 23.2686 13.6254 23.212C13.602 23.1554 13.59 23.0948 13.5902 23.0336V13.915C13.59 13.8538 13.602 13.7932 13.6254 13.7366C13.6489 13.6801 13.6833 13.6286 13.7268 13.5853C13.7703 13.542 13.822 13.5076 13.8789 13.4842C13.9358 13.4607 13.9968 13.4486 14.0584 13.4486H16.3131C16.4376 13.4486 16.5571 13.4978 16.6451 13.5852C16.7332 13.6727 16.7827 13.7913 16.7827 13.915V14.7032C17.3155 13.9095 18.105 13.2973 19.7898 13.2973C23.522 13.2973 23.5 16.7582 23.5 18.6591Z" fill="#1458A1"/>
<rect x="1" y="1" width="30" height="30" rx="5.5" stroke="#1458A1"/>
</svg>
